<svg width="11" height="11" viewBox="0 0 11 11" fill="none" xmlns="http://www.w3.org/2000/svg">
<path d="M10.2778 4.9156H6.50447V1.14232C6.50447 1.03309 6.41511 0.943726 6.30588 0.943726H5.11432C5.00509 0.943726 4.91572 1.03309 4.91572 1.14232V4.9156H1.14244C1.03321 4.9156 0.943848 5.00497 0.943848 5.11419V6.30576C0.943848 6.41498 1.03321 6.50435 1.14244 6.50435H4.91572V10.2776C4.91572 10.3869 5.00509 10.4762 5.11432 10.4762H6.30588C6.41511 10.4762 6.50447 10.3869 6.50447 10.2776V6.50435H10.2778C10.387 6.50435 10.4763 6.41498 10.4763 6.30576V5.11419C10.4763 5.00497 10.387 4.9156 10.2778 4.9156Z" fill="black" fill-opacity="0.6"/>
</svg>
