<svg width="19" height="22" viewBox="0 0 19 22" fill="none" xmlns="http://www.w3.org/2000/svg">
<path d="M9.34166 8.45472V12.9519H14.725C13.9333 15.3804 11.875 16.9994 9.5 16.9994C6.4125 16.9994 3.95833 14.2111 3.95833 10.7033C3.95833 7.1955 6.4125 4.40725 9.5 4.40725C10.6875 4.40725 11.7958 4.85697 12.7458 5.57652L13.0625 5.84635L15.4375 2.33854L15.1208 2.06871C13.4583 0.71955 11.5583 0 9.5 0C4.275 0 0 4.85697 0 10.7933C0 16.7296 4.275 21.5865 9.5 21.5865C14.725 21.5865 19 16.7296 19 10.7933V8.54466H9.34166V8.45472Z" fill="white"/>
</svg>
