<svg width="11" height="12" viewBox="0 0 11 12" fill="none" xmlns="http://www.w3.org/2000/svg">
<path d="M9.2065 1.94996L1.066 5.11296L3.4805 6.11596C4.18626 6.40871 4.74698 6.9696 5.0395 7.67546L6.0425 10.0895L9.2065 1.94996ZM10.13 2.29096L6.966 10.4315C6.766 10.9465 6.1905 11.21 5.6805 11.0215C5.55623 10.9756 5.44278 10.9045 5.34728 10.8127C5.25177 10.7209 5.17627 10.6103 5.1255 10.488L4.122 8.07296C3.92678 7.60262 3.55293 7.22895 3.0825 7.03396L0.668499 6.03096C0.166499 5.82246 -0.0625006 5.24296 0.156999 4.73596C0.210924 4.61203 0.288826 4.49998 0.386221 4.40628C0.483616 4.31257 0.598581 4.23906 0.724499 4.18996L8.865 1.02596C9.04184 0.954884 9.23567 0.937343 9.42241 0.975513C9.60914 1.01368 9.78054 1.10588 9.91531 1.24065C10.0501 1.37542 10.1423 1.54682 10.1804 1.73355C10.2186 1.92028 10.2011 2.11411 10.13 2.29096Z" fill="black"/>
</svg>
