<svg width="20" height="23" viewBox="0 0 20 23" fill="none" xmlns="http://www.w3.org/2000/svg">
<path fill-rule="evenodd" clip-rule="evenodd" d="M19.8881 16.9512V20.3596C19.8904 20.9994 19.6552 21.6107 19.2402 22.0432C18.8252 22.4757 18.269 22.6895 17.7081 22.6319C14.631 22.252 11.6751 21.0574 9.07812 19.1439C6.66195 17.3996 4.61346 15.0722 3.07812 12.3272C1.3881 9.36321 0.336367 5.98866 0.0081238 2.47688C-0.042403 1.84164 0.144396 1.21152 0.52289 0.74044C0.901383 0.269363 1.43672 0.000712366 1.99812 0.000111703H4.99812C6.00199 -0.0111135 6.85762 0.824907 6.99812 1.95426C7.12475 3.04502 7.35957 4.11601 7.69812 5.14679C7.97286 5.97716 7.79714 6.91326 7.24812 7.54403L5.97812 8.98692C7.40168 11.8313 9.47458 14.1864 11.9781 15.8037L13.2481 14.3608C13.8033 13.7371 14.6272 13.5374 15.3581 13.8496C16.2654 14.2342 17.2081 14.501 18.1681 14.6449C19.1737 14.806 19.9133 15.7978 19.8881 16.9512Z" fill="#58D66C"/>
</svg>
