<svg width="13" height="13" viewBox="0 0 13 13" fill="none" xmlns="http://www.w3.org/2000/svg">
<path d="M5.869 0.747967C6.13703 0.204975 6.91133 0.204974 7.17935 0.747966L8.54932 3.52337C8.65566 3.7388 8.86111 3.88819 9.09883 3.92294L12.1636 4.3709C12.7627 4.45846 13.0014 5.19484 12.5677 5.61727L10.3512 7.77616C10.1789 7.94401 10.1002 8.18595 10.1409 8.42307L10.6638 11.4721C10.7662 12.069 10.1397 12.5242 9.60363 12.2423L6.86426 10.8017C6.65136 10.6897 6.397 10.6897 6.1841 10.8017L3.44473 12.2423C2.90871 12.5242 2.28214 12.069 2.38452 11.4721L2.90747 8.42307C2.94814 8.18595 2.86947 7.94401 2.69713 7.77616L0.480618 5.61727C0.0469114 5.19484 0.285673 4.45846 0.88474 4.3709L3.94953 3.92294C4.18725 3.88819 4.3927 3.7388 4.49903 3.52337L5.869 0.747967Z" fill="#58D66C"/>
</svg>
