<svg width="20" height="18" viewBox="0 0 20 18" fill="none" xmlns="http://www.w3.org/2000/svg">
<path d="M19.6 2.15865C18.9 2.49949 18.1 2.72672 17.3 2.84033C18.1 2.27227 18.8 1.36336 19.1 0.340843C18.3 0.90891 17.5 1.24975 16.5 1.47698C15.8 0.56807 14.7 0 13.6 0C11.4 0 9.59999 2.04504 9.59999 4.54453C9.59999 4.88537 9.6 5.2262 9.7 5.56704C6.4 5.33982 3.39999 3.52201 1.39999 0.795289C1.09999 1.47697 0.899994 2.27226 0.899994 3.06755C0.899994 4.65814 1.6 6.0215 2.7 6.8168C2 6.8168 1.39999 6.58957 0.899994 6.24873C0.899994 8.40738 2.29999 10.3388 4.09999 10.6796C3.79999 10.7933 3.4 10.7933 3 10.7933C2.7 10.7933 2.5 10.7933 2.2 10.6796C2.7 12.4975 4.2 13.8608 6 13.8608C4.6 15.1106 2.9 15.7922 1 15.7922C0.7 15.7922 0.4 15.7922 0 15.6786C1.8 16.9284 3.9 17.7237 6.2 17.7237C13.6 17.7237 17.6 10.7933 17.6 4.77175V4.20369C18.4 3.86285 19.1 3.06755 19.6 2.15865Z" fill="white"/>
</svg>
